<svg width="826" height="826" viewBox="0 0 826 826" fill="none" xmlns="http://www.w3.org/2000/svg">
<g id="g8">
<g id="g10">
<path id="path14" d="M375.493 360.402L370.294 379.029L367.648 388.515L321.995 552.123C321.995 552.123 311.016 548.377 296.699 542.17C293.899 540.956 290.967 539.649 287.968 538.257C265.613 527.897 239.356 512.853 232.963 497.161C223.41 473.699 251.831 386.043 278.368 356.76C290.527 343.333 326.074 348.328 350.618 353.829C353.363 354.439 355.971 355.06 358.389 355.665C368.592 358.199 375.493 360.402 375.493 360.402Z" fill="white"/>
<path id="path16" d="M266.546 523.265C277.179 499.416 286.118 478.153 293.457 459.964C293.065 458.907 292.621 457.575 292.226 456.063C291.623 453.744 291.138 451 291.138 448.169C291.138 446.67 291.274 445.146 291.599 443.649C291.652 443.405 291.71 443.161 291.774 442.92C291.797 442.829 291.822 442.736 291.846 442.643C294.62 432.481 301.779 429.762 305.572 429.037C312.701 410.243 317.072 397.515 318.906 392.03C317.167 391.286 314.76 390.24 311.807 388.908C297.151 404.323 287.809 424.578 281.761 443.015C283.413 444.435 284.289 446.624 283.975 448.873C283.533 452.031 282.812 456.379 281.699 461.071C280.995 464.045 280.132 467.159 279.085 470.19C276.13 478.75 271.698 486.671 265.156 489.068C262.806 489.932 260.318 490.332 257.807 490.332C254.986 490.332 252.139 489.826 249.429 488.891C249.417 488.887 249.404 488.883 249.392 488.878C249.39 488.878 249.386 488.876 249.384 488.876C243.858 486.96 238.918 483.27 235.984 478.489C235.606 477.87 235.274 477.203 234.985 476.493C234.185 485.052 234.557 491.767 236.215 495.839C240.139 505.471 252.411 515.001 266.546 523.265ZM248.676 428.964C250.115 421.661 252.068 413.83 254.427 405.818C251.43 413.07 248.585 420.748 245.979 428.667C246.193 428.646 246.412 428.634 246.629 428.634C247.309 428.634 247.998 428.741 248.676 428.964Z" fill="#8AE2D5"/>
<path id="path18" d="M371.19 362.75L319.629 547.549C304.571 542.044 245.747 519.242 236.215 495.839C232.16 485.88 235.792 460.123 245.471 430.224C255.391 399.575 268.991 372.328 280.966 359.114C294.818 343.829 347.975 355.766 371.19 362.75ZM324.383 556.65L379.782 358.09L376.559 357.061C375.756 356.803 356.592 350.715 334.714 347.147C304.431 342.206 284.598 344.646 275.762 354.397C248.075 384.951 219.668 473.829 229.711 498.489C241.803 528.179 317.642 554.349 320.866 555.448L324.383 556.65Z" fill="#209886"/>
<path id="path20" d="M249.14 429.138L279.993 441.927C282.748 443.068 284.388 445.92 283.975 448.873C282.461 459.688 277.67 484.48 265.156 489.068C254.769 492.878 241.644 487.708 235.988 478.494C229.663 468.185 236.488 444.568 240.434 433.061C241.661 429.485 245.646 427.69 249.14 429.138Z" fill="white"/>
<path id="path22" d="M249.384 488.876C243.86 486.96 238.92 483.27 235.988 478.494C235.608 477.872 235.274 477.203 234.985 476.49C234.985 476.493 234.985 476.493 234.985 476.493C235.274 477.203 235.606 477.87 235.984 478.489C238.918 483.27 243.858 486.96 249.384 488.876ZM279.085 470.19C280.132 467.159 280.995 464.045 281.699 461.071C280.995 464.047 280.132 467.159 279.085 470.19Z" fill="#8C7B94"/>
<path id="path24" d="M234.985 476.493C234.985 476.493 234.985 476.493 234.985 476.49C234.32 474.851 233.888 472.984 233.648 470.96C233.888 472.986 234.32 474.853 234.985 476.493Z" fill="#209886"/>
<path id="path26" d="M257.801 490.332C260.312 490.33 262.804 489.929 265.154 489.066C271.696 486.669 276.13 478.75 279.085 470.19C280.132 467.159 280.995 464.047 281.699 461.071C282.81 456.381 283.531 452.033 283.971 448.877C284.092 448.039 284.043 447.217 283.849 446.441C281.362 457.115 276.274 476.943 270.306 476.941C269.867 476.941 269.421 476.833 268.97 476.606C267.407 475.813 266.802 470.696 266.802 470.696C266.802 470.696 260.766 475.53 253.58 475.53C248.386 475.53 242.59 473.005 238.041 464.303C236.147 460.683 235.268 455.824 235.513 450.281C233.944 457.348 232.94 464.817 233.638 470.878C233.64 470.882 233.64 470.886 233.64 470.89C233.642 470.901 233.642 470.911 233.644 470.923C233.644 470.929 233.646 470.938 233.646 470.944C233.646 470.95 233.649 470.956 233.649 470.96C233.888 472.984 234.32 474.851 234.985 476.49C235.274 477.203 235.608 477.872 235.988 478.493C238.921 483.27 243.86 486.96 249.384 488.876C249.388 488.876 249.39 488.878 249.392 488.878C249.405 488.883 249.417 488.887 249.429 488.891C252.137 489.824 254.982 490.332 257.801 490.332Z" fill="#8AE2D5"/>
<path id="path28" d="M246.625 432.147C247.019 432.147 247.416 432.225 247.794 432.382L278.647 445.173C279.927 445.701 280.687 447.025 280.497 448.386C277.604 469.056 271.417 483.032 263.946 485.773C255.376 488.916 243.943 484.74 238.982 476.656C235.053 470.252 236.837 454.38 243.755 434.201C244.031 433.398 244.608 432.764 245.38 432.417C245.778 432.235 246.202 432.147 246.625 432.147ZM257.803 493.839C260.737 493.841 263.639 493.366 266.364 492.366C280.185 487.299 285.509 463.248 287.452 449.361C288.086 444.828 285.571 440.438 281.336 438.682L250.484 425.894C247.928 424.832 245.014 424.878 242.491 426.014C239.97 427.151 238.01 429.305 237.112 431.924C231.581 448.053 226.378 469.544 232.996 480.331C238.138 488.709 248.143 493.839 257.803 493.839Z" fill="#209886"/>
<path id="path30" d="M248.444 491.418C249.254 491.255 249.696 491.098 250.266 490.908C250.796 490.72 251.317 490.52 251.81 490.291C252.814 489.851 253.766 489.349 254.672 488.79C256.479 487.666 258.177 486.405 259.649 484.94C262.658 482.072 265.018 478.69 266.81 475.117C267.669 473.312 268.495 471.506 269.125 469.635C269.844 467.78 270.341 465.942 270.887 464.072C271.409 462.205 271.865 460.313 272.227 458.397C272.4 457.435 272.561 456.472 272.675 455.494C272.784 454.494 272.877 453.573 272.838 452.448C272.822 451.936 272.392 451.537 271.882 451.554C271.403 451.57 271.023 451.948 270.99 452.415L270.984 452.516C270.934 453.296 270.765 454.267 270.575 455.149C270.385 456.051 270.143 456.949 269.891 457.846C269.375 459.636 268.764 461.406 268.093 463.155C267.403 464.885 266.726 466.68 265.902 468.311C265.152 469.996 264.231 471.578 263.304 473.135C261.379 476.21 259.015 478.95 256.279 481.093C254.937 482.202 253.45 483.082 251.949 483.832C251.195 484.203 250.42 484.519 249.65 484.771C249.264 484.907 248.882 485.011 248.502 485.106C248.161 485.19 247.682 485.279 247.552 485.283C245.83 485.329 244.471 486.762 244.517 488.484C244.562 490.206 245.995 491.565 247.717 491.52C247.895 491.513 248.07 491.495 248.238 491.462L248.444 491.418Z" fill="#209886"/>
<path id="path32" d="M327.742 368.417C324.013 366.595 320.281 364.894 316.5 363.231C312.724 361.575 308.914 359.981 305.05 358.492C301.184 357.001 297.286 355.57 293.277 354.342C289.265 353.113 285.197 351.988 280.848 351.321C278.93 351.027 277.135 352.345 276.842 354.263C276.549 356.182 277.864 357.976 279.783 358.269C279.863 358.282 279.942 358.29 280.02 358.298L280.055 358.3C283.84 358.61 287.76 359.388 291.646 360.295C295.543 361.199 299.427 362.325 303.297 363.516C307.169 364.708 311.018 366.015 314.846 367.386C318.671 368.759 322.501 370.195 326.249 371.714L326.268 371.721C327.195 372.096 328.25 371.65 328.626 370.723C328.985 369.837 328.587 368.832 327.742 368.417Z" fill="#209886"/>
<path id="path34" d="M504.62 379.394C500.736 388.137 495.168 396.802 493.399 401.413L502.52 417.489L512.859 435.698C518.065 436.299 523.064 436.75 527.88 437.037C613.986 442.358 639.299 400.767 642.129 380.875C647.731 341.493 625.285 316.509 614.912 306.343C613.334 304.8 611.558 303.247 609.594 301.701C575.348 274.719 485.717 249.469 459.801 285.424C445.2 305.665 455.277 340.335 500.643 354.022C511.757 357.369 509.499 368.435 504.62 379.394Z" fill="white"/>
<path id="path36" d="M542.323 433.976C602.645 433.976 628.765 408.554 636.411 388.771C624.542 406.696 591.17 425.004 574.047 425.004C571.522 425.004 569.354 424.607 567.656 423.752C563.964 421.89 561.155 419.664 559.448 419.081C559.115 418.97 558.799 418.918 558.496 418.918C557.275 418.918 556.243 419.734 555.018 420.55C553.796 421.365 552.379 422.181 550.393 422.181C550.24 422.181 550.083 422.177 549.924 422.167C545.767 421.906 545.121 415.302 542.228 415.302C542.042 415.302 541.85 415.329 541.645 415.387C539.694 415.93 537.424 419.472 534.829 421.382C535.083 422.067 535.124 422.84 534.901 423.593C534.876 423.678 533.85 427.164 532.27 433.751C535.725 433.904 539.07 433.976 542.323 433.976Z" fill="#8AE2D5"/>
<path id="path38" d="M542.804 441.039C572.389 441.039 596.624 435.135 615.095 423.393C634.984 410.749 643.899 393.395 645.61 381.368C649.738 352.349 640.236 326.264 617.369 303.834C595.839 282.715 538.507 260.925 496.853 264.481C478.266 266.067 464.842 272.423 456.949 283.368C449.831 293.24 448.132 305.932 452.282 318.192C458.257 335.825 475.514 350.108 499.633 357.381C525.516 365.187 555.685 378.17 559.293 385.533C559.46 385.876 559.506 386.114 559.477 386.19C558.781 388.001 559.683 390.033 561.494 390.729C563.305 391.425 565.335 390.52 566.033 388.709C566.562 387.334 566.915 385.129 565.599 382.442C558.494 367.94 503.978 351.356 501.661 350.658C479.743 344.048 464.171 331.393 458.936 315.939C455.52 305.857 456.873 295.483 462.647 287.477C469.288 278.267 480.996 272.884 497.452 271.479C536.629 268.132 592.405 289.187 612.45 308.848C633.636 329.628 642.452 353.693 638.656 380.379C635.444 402.958 605.103 442.847 513.26 432.209C511.344 431.979 509.59 433.365 509.367 435.292C509.144 437.22 510.526 438.963 512.452 439.186C523.118 440.421 533.241 441.039 542.804 441.039Z" fill="#209886"/>
<path id="path40" d="M183.789 275.099C184.989 281.447 187.541 288.332 191.539 295.537C220.755 348.225 323.261 390.045 323.261 390.045C323.261 390.045 317.442 408.304 304.843 440.78C304.552 441.54 304.251 442.3 303.949 443.077C300.059 453.049 295.551 464.303 290.403 476.724C284.375 491.266 277.462 507.42 269.615 524.993C250.776 567.239 234.561 622.951 234.561 622.951C234.561 622.951 189.552 638.244 190.191 666.053C190.224 667.536 190.385 669.058 190.696 670.609C195.987 697.342 299.117 691.746 307.763 679.086C318.121 663.928 322.295 650.807 332.51 627.756C340.076 610.689 348.083 593.058 365.699 578.768C385.62 564.125 418.373 563.962 439.543 565.913C469.979 568.728 475.006 587.538 478.832 601.167C485.217 623.851 481.389 670.58 503.044 683.909C514.883 691.201 612.442 702.48 618.118 668.994C619.269 662.188 618.059 656.488 615.527 651.764C607.207 636.208 584.581 631.091 584.581 631.091C584.581 631.091 586.844 594.429 584.612 574.264C579.106 524.425 517.125 501.58 517.125 501.58C517.125 501.58 517.342 496.752 519.682 481.139C522.575 461.845 525.615 446.963 527.88 437.037C530.054 427.569 531.529 422.592 531.529 422.592L537.257 405.816L540.491 396.335L504.62 379.394L368.898 315.297C364.487 312.556 359.589 309.316 354.311 305.738C314.142 278.488 251.773 231.72 210.613 237.541C189.639 240.508 180.016 255.201 183.789 275.099Z" fill="white"/>
<path id="path42" d="M317.851 433.518C328.246 424.647 344.541 431.203 345.873 423.664C346.716 418.891 331.81 414.227 336.512 405.223C341.208 396.22 364.08 401.841 363.692 394.574C363.386 389.003 351.002 389.862 342.472 387.607C333.944 385.352 347.06 373.185 347.969 369.21C348.52 366.818 346.819 366.139 343.579 366.139C341.464 366.139 338.693 366.428 335.463 366.717C332.232 367.004 328.544 367.293 324.593 367.293C322.83 367.293 321.013 367.235 319.162 367.095C257.879 362.451 211.115 311.449 189.654 283.126C190.928 286.591 192.584 290.17 194.614 293.831C222.888 344.83 323.571 386.38 324.585 386.793L327.587 388.02L326.604 391.111C326.518 391.379 321.938 405.667 312.323 431.042C314.095 431.905 315.941 432.729 317.851 433.518Z" fill="#8AE2D5"/>
<path id="path44" d="M559.848 688.252C575.565 688.252 591.346 686.513 602.282 681.557C609.576 678.251 613.739 673.826 614.658 668.403C615.405 663.997 615.019 660.114 613.862 656.701C611.325 661.545 605.863 666.301 595.207 669.686C581.473 674.043 563.718 676.886 547.324 676.886C525.388 676.886 505.89 671.796 501.723 658.446C494.444 635.126 499.205 613.701 498.937 593.789C498.722 577.965 500.645 557.41 490.409 551.157C489.421 550.554 488.391 550.312 487.319 550.312C485.13 550.312 482.758 551.32 480.172 552.328C477.585 553.335 474.785 554.343 471.739 554.343C471.196 554.343 470.646 554.31 470.091 554.242C461.738 553.191 461.622 534.154 455.727 533.885C455.632 533.881 455.537 533.879 455.444 533.879C448.477 533.879 449.369 546.422 434.35 551.469C429.454 553.112 421.828 554.077 413.477 554.077C398.388 554.077 380.926 550.932 372.883 542.975C370.343 540.462 368.52 539.436 367.196 539.436C362.306 539.436 364.212 553.453 361.732 558.236C360.245 561.106 357.672 562.103 354.587 562.103C351.083 562.103 346.916 560.819 342.92 559.532C338.926 558.246 335.104 556.959 332.292 556.959C330.293 556.959 328.802 557.61 328.122 559.371C326.545 563.466 332.448 578.557 329.597 596.225C326.032 618.329 312.288 656.119 284.953 670.198C275.611 675.011 258.069 678.014 240.098 678.014C222.791 678.014 205.088 675.232 193.916 668.604C193.978 669.043 194.052 669.483 194.139 669.929C195.271 675.639 203.566 680.351 217.498 683.205C227.955 685.345 239.621 686.214 250.947 686.214C277.336 686.214 301.868 681.491 304.866 677.105C312.348 666.148 316.548 656.212 322.361 642.457C324.372 637.701 326.65 632.307 329.299 626.331C336.622 609.817 344.919 591.1 363.485 576.044L363.616 575.941C379.353 564.371 402.398 561.54 421.179 561.54C428.205 561.54 434.637 561.936 439.864 562.419C472.443 565.432 478.266 586.154 482.12 599.864L482.217 600.213C484.247 607.43 485.261 616.784 486.336 626.688C488.67 648.193 491.313 672.566 504.886 680.923C509.502 683.765 534.595 688.252 559.848 688.252Z" fill="#8AE2D5"/>
<path id="path46" d="M559.229 695.323C576.162 695.323 593.233 693.369 605.181 687.955C614.732 683.626 620.25 677.442 621.583 669.576C625.657 645.529 603.003 632.635 588.252 628.41C588.738 619.275 590.001 591.022 588.106 573.876C582.999 527.696 532.879 504.265 520.845 499.278C521.123 496.471 521.755 491.018 523.159 481.659C528.706 444.673 534.839 423.802 534.901 423.593C535.452 421.735 534.393 419.779 532.532 419.228C530.674 418.673 528.718 419.736 528.167 421.594C527.911 422.454 521.842 443.087 516.213 480.616C513.871 496.232 513.627 501.219 513.619 501.423L513.503 503.988L515.911 504.878C516.51 505.099 575.92 527.585 581.124 574.648C583.294 594.276 581.099 630.513 581.076 630.876L580.895 633.858L583.808 634.517C585.244 634.845 618.986 642.857 614.658 668.403C613.739 673.826 609.576 678.251 602.282 681.557C573.773 694.476 512.374 685.532 504.886 680.923C491.313 672.566 488.67 648.193 486.336 626.688C485.26 616.784 484.247 607.43 482.217 600.213L482.12 599.864C478.266 586.154 472.443 565.432 439.864 562.419C420.669 560.645 385.24 560.04 363.615 575.941L363.485 576.044C344.919 591.1 336.622 609.817 329.299 626.331C326.65 632.307 324.372 637.701 322.361 642.457C316.548 656.212 312.348 666.148 304.866 677.105C300.581 683.375 252.314 690.327 217.498 683.205C203.566 680.351 195.27 675.639 194.139 669.929C188.733 642.618 235.222 626.432 235.693 626.273L237.421 625.685L237.933 623.929C238.094 623.376 254.299 567.962 272.826 526.426C309.769 443.609 326.439 391.627 326.604 391.111L327.587 388.02L324.585 386.793C323.571 386.38 222.888 344.83 194.614 293.831C186.147 278.562 184.204 264.692 189.142 254.778C192.875 247.28 200.468 242.522 211.103 241.019C246.784 235.978 300.435 272.931 339.612 299.916C349.681 306.853 359.192 313.403 367.041 318.281C368.689 319.305 370.853 318.797 371.878 317.151C372.902 315.503 372.396 313.339 370.748 312.315C363.039 307.524 353.594 301.019 343.595 294.132C303.466 266.492 248.504 228.633 210.12 234.064C197.094 235.906 187.665 241.985 182.854 251.645C176.855 263.692 178.85 279.884 188.47 297.238C215.454 345.904 301.325 384.519 318.906 392.03C314.817 404.253 298.13 452.458 266.412 523.564C249.535 561.399 234.6 610.509 231.697 620.25C222.473 623.717 181.257 641.021 187.25 671.294C189.014 680.207 198.717 686.53 216.09 690.086C246.716 696.357 302.781 692.609 310.665 681.066C318.545 669.531 322.859 659.321 328.831 645.191C330.829 640.46 333.097 635.099 335.721 629.179C342.714 613.408 350.637 595.536 367.843 581.551C387.605 567.076 421.033 567.732 439.217 569.413C466.989 571.982 471.629 588.496 475.357 601.764L475.456 602.115C477.327 608.768 478.312 617.84 479.353 627.446C481.861 650.553 484.703 676.744 501.204 686.904C507.327 690.674 533.113 695.323 559.229 695.323Z" fill="#209886"/>
<path id="path48" d="M538.538 402.062C545.945 398.219 552.929 393.68 559.417 388.54C559.264 388.077 559.208 387.58 559.262 387.082L558.128 387.384C558.523 387.237 558.907 387.09 559.278 386.942C559.316 386.69 559.382 386.438 559.477 386.19C559.506 386.114 559.46 385.876 559.293 385.533C558.867 384.668 558.077 383.724 556.97 382.723C549.598 386.884 541.86 390.396 533.858 393.201L540.491 396.335L538.538 402.062Z" fill="#8AE2D5"/>
<path id="path50" d="M559.417 388.54C560.342 387.807 561.255 387.064 562.159 386.308L559.262 387.082C559.208 387.58 559.264 388.078 559.417 388.54ZM559.278 386.942C560.625 386.405 561.833 385.856 562.907 385.294C562.615 383.904 561.63 382.43 560.096 380.906C559.823 381.067 559.553 381.228 559.28 381.389L558.772 381.728L558.609 381.781C558.066 382.099 557.519 382.413 556.97 382.723C558.077 383.725 558.867 384.668 559.293 385.533C559.46 385.876 559.505 386.114 559.477 386.19C559.382 386.438 559.316 386.69 559.278 386.942Z" fill="#209886"/>
<path id="path52" d="M479.796 416.471C485.11 416.471 490.481 416.13 495.903 415.43C498.13 415.129 500.337 414.79 502.52 414.392C502.582 414.384 502.635 414.367 502.697 414.359C507.292 413.512 511.796 412.426 516.204 411.11C523.531 408.924 530.562 406.099 537.257 402.718C537.685 402.501 538.112 402.283 538.537 402.062L540.491 396.335L533.858 393.201C531.147 394.151 528.407 395.02 525.639 395.805C520.648 397.217 515.56 398.374 510.524 399.235C508.211 399.637 505.725 400.001 502.898 400.348C497.266 401.011 491.588 401.343 485.944 401.343C485.758 401.343 485.574 401.341 485.391 401.341C483.765 401.335 482.142 401.302 480.527 401.24C480.515 401.24 480.503 401.238 480.49 401.238C480.484 401.238 480.478 401.238 480.472 401.238C480.292 401.229 480.114 401.223 479.935 401.215C473.554 400.961 467.082 400.257 460.699 399.125C453.222 397.804 445.753 395.85 438.484 393.314C435.89 392.4 433.289 391.402 430.747 390.351C399.619 377.397 374.529 354.197 359.025 325.442C370.294 362.992 397.395 392.443 431.682 406.838C433.941 407.784 436.237 408.67 438.563 409.492C444.941 411.726 451.537 413.463 458.298 414.629C463.894 415.606 469.62 416.205 475.421 416.393C476.875 416.444 478.334 416.471 479.796 416.471Z" fill="#8AE2D5"/>
<path id="path54" d="M585.62 356.316C569.04 372.974 548.229 385.56 524.632 392.253C519.82 393.616 514.908 394.739 509.89 395.598C507.449 396.024 504.969 396.375 502.466 396.682C494.919 397.57 487.443 397.839 480.082 397.527C473.736 397.273 467.475 396.577 461.342 395.491C453.934 394.182 446.707 392.274 439.713 389.833C437.165 388.934 434.649 387.97 432.163 386.944C386.729 368.037 352.562 325.812 346.416 273.46C337.347 196.338 392.519 126.477 469.628 117.406C484.48 115.669 499.079 116.293 513.01 119.029C514.641 119.332 516.271 119.685 517.89 120.071C522.226 121.075 526.49 122.281 530.672 123.681C540.34 126.923 549.577 131.204 558.221 136.391C566.867 141.564 574.943 147.664 582.278 154.549C584.612 156.736 586.873 159.001 589.06 161.355C592.333 164.882 595.434 168.568 598.346 172.442C612.888 191.686 622.663 214.938 625.678 240.628C630.898 284.991 614.856 326.943 585.62 356.316Z" fill="white"/>
<path id="path56" d="M585.355 356.053C568.49 372.999 547.458 385.393 524.531 391.896C519.68 393.271 514.732 394.392 509.828 395.233C507.581 395.623 505.159 395.976 502.421 396.313C494.999 397.186 487.489 397.469 480.098 397.155C473.899 396.907 467.611 396.226 461.406 395.125C454.143 393.841 446.887 391.943 439.835 389.482C437.309 388.592 434.775 387.621 432.306 386.599C385.461 367.107 352.692 323.738 346.786 273.414C337.756 196.629 392.883 126.81 469.672 117.775C484.238 116.072 498.797 116.615 512.94 119.392C514.499 119.683 516.089 120.022 517.803 120.433C522.113 121.43 526.399 122.642 530.554 124.034C540.103 127.235 549.348 131.499 558.029 136.709C566.636 141.859 574.708 147.953 582.024 154.819C584.374 157.025 586.65 159.306 588.787 161.607C592.112 165.19 595.228 168.911 598.049 172.665C612.981 192.421 622.406 215.937 625.309 240.672C630.341 283.434 615.777 325.489 585.355 356.053ZM485.944 398.023C491.458 398.023 497.008 397.698 502.509 397.052C505.262 396.713 507.697 396.358 509.954 395.964C514.885 395.121 519.858 393.992 524.735 392.612C547.783 386.072 568.926 373.612 585.882 356.578C616.464 325.851 631.105 283.574 626.047 240.585C623.129 215.72 613.652 192.078 598.641 172.217C595.808 168.444 592.674 164.704 589.33 161.101C587.183 158.788 584.895 156.494 582.532 154.278C575.179 147.375 567.063 141.248 558.411 136.071C549.684 130.834 540.39 126.547 530.79 123.328C526.614 121.93 522.303 120.712 517.972 119.71C516.248 119.297 514.645 118.954 513.078 118.663C498.865 115.871 484.232 115.324 469.585 117.036C392.389 126.12 336.969 196.309 346.046 273.501C351.985 324.089 384.928 367.69 432.021 387.287C434.503 388.313 437.049 389.288 439.589 390.184C446.678 392.658 453.974 394.566 461.278 395.856C467.514 396.963 473.837 397.649 480.067 397.899C482.019 397.981 483.98 398.023 485.944 398.023Z" fill="#209886"/>
<path id="path58" d="M485.942 393.959C491.299 393.959 496.686 393.645 502.016 393.019C504.698 392.689 507.067 392.342 509.266 391.96C513.219 391.282 517.198 390.419 521.13 389.385C517.526 389.649 513.931 389.779 510.352 389.779C476.459 389.779 443.963 378.015 419.42 355.721C396.428 334.838 383.437 307.507 381.643 277.67C381.533 277.402 381.424 277.137 381.317 276.869C379.107 278.577 376.796 280.072 374.401 281.329C376.049 300.751 382.275 319.135 392.959 335.74C411.883 365.152 443.787 386.32 480.53 393.851C482.328 393.923 484.133 393.959 485.942 393.959ZM431.591 382.688C413.38 371.764 397.932 357.113 386.75 339.734C375.82 322.747 369.282 304.03 367.252 284.282C363.956 285.28 360.669 285.779 357.435 285.779C355.636 285.779 353.852 285.625 352.095 285.315C361.201 328.446 390.748 364.935 431.591 382.688ZM377.837 180.613C379.357 175.932 381.12 171.347 383.109 166.881C379.495 171.011 376.125 175.36 373.028 179.89C374.651 180.004 376.255 180.244 377.837 180.613Z" fill="#8AE2D5"/>
<path id="path60" d="M583.592 354.298C567.026 370.94 546.368 383.113 523.851 389.5C519.087 390.851 514.226 391.953 509.407 392.777C507.195 393.164 504.814 393.511 502.117 393.843C494.84 394.698 487.46 394.977 480.203 394.669C474.112 394.425 467.935 393.754 461.841 392.674C454.707 391.412 447.58 389.548 440.657 387.132C438.179 386.258 435.686 385.304 433.258 384.299C387.249 365.154 355.06 322.553 349.258 273.125C340.388 197.703 394.537 129.122 469.963 120.247C484.273 118.572 498.572 119.107 512.459 121.835C514.001 122.122 515.55 122.454 517.225 122.855C521.472 123.838 525.685 125.028 529.763 126.395C539.141 129.54 548.22 133.727 556.749 138.844C565.205 143.904 573.135 149.89 580.321 156.634C582.629 158.801 584.864 161.043 586.962 163.302C590.229 166.821 593.289 170.474 596.058 174.16C610.728 193.569 619.985 216.668 622.836 240.963C627.779 282.967 613.474 324.275 583.592 354.298ZM485.944 400.513C491.553 400.513 497.202 400.183 502.801 399.524C505.609 399.179 508.083 398.818 510.381 398.417C515.391 397.56 520.45 396.412 525.412 395.008C548.871 388.352 570.392 375.671 587.647 358.335C618.769 327.067 633.667 284.043 628.52 240.296C625.55 214.991 615.905 190.93 600.628 170.716C597.745 166.879 594.557 163.073 591.156 159.408C588.969 157.054 586.64 154.716 584.234 152.461C576.752 145.438 568.494 139.204 559.689 133.934C550.81 128.608 541.352 124.245 531.581 120.968C527.331 119.543 522.941 118.304 518.536 117.284C516.787 116.867 515.145 116.514 513.535 116.214C499.09 113.379 484.197 112.821 469.296 114.564C390.735 123.807 334.336 195.237 343.575 273.792C349.617 325.275 383.142 369.643 431.065 389.585C433.592 390.63 436.18 391.621 438.761 392.532C445.984 395.051 453.41 396.994 460.844 398.308C467.19 399.433 473.624 400.133 479.968 400.387C481.952 400.47 483.945 400.513 485.944 400.513Z" fill="#209886"/>
<path id="path62" d="M583.003 353.712C566.537 370.255 546.005 382.353 523.626 388.703C518.889 390.043 514.057 391.14 509.266 391.96C507.067 392.342 504.698 392.689 502.016 393.019C494.786 393.868 487.451 394.144 480.238 393.839C474.182 393.597 468.043 392.93 461.986 391.856C454.895 390.603 447.812 388.749 440.929 386.347C438.468 385.48 435.992 384.532 433.576 383.532C387.844 364.503 355.849 322.159 350.081 273.028C341.266 198.06 395.088 129.893 470.06 121.071C484.284 119.407 498.495 119.939 512.3 122.649C513.834 122.936 515.37 123.264 517.033 123.66C521.26 124.641 525.445 125.822 529.499 127.181C538.82 130.306 547.844 134.471 556.321 139.555C564.728 144.585 572.61 150.534 579.751 157.239C582.049 159.393 584.269 161.621 586.355 163.866C589.601 167.364 592.643 170.996 595.395 174.658C609.976 193.953 619.178 216.91 622.012 241.06C626.924 282.81 612.706 323.87 583.003 353.712ZM485.944 401.343C491.586 401.343 497.266 401.011 502.898 400.348C505.725 400.001 508.211 399.637 510.524 399.235C515.56 398.374 520.648 397.217 525.64 395.805C549.234 389.11 570.88 376.357 588.236 358.92C619.538 327.472 634.521 284.2 629.344 240.199C626.357 214.748 616.656 190.548 601.291 170.216C598.394 166.358 595.185 162.53 591.765 158.844C589.564 156.473 587.222 154.123 584.802 151.856C577.277 144.792 568.971 138.522 560.117 133.223C551.186 127.865 541.672 123.477 531.845 120.181C527.568 118.748 523.153 117.503 518.722 116.474C516.964 116.055 515.31 115.702 513.687 115.398C499.166 112.547 484.187 111.985 469.201 113.738C390.182 123.037 333.458 194.88 342.751 273.889C348.828 325.669 382.547 370.294 430.747 390.351C433.289 391.402 435.89 392.4 438.484 393.314C445.753 395.85 453.222 397.804 460.699 399.125C467.082 400.257 473.554 400.961 479.935 401.215C481.93 401.3 483.935 401.343 485.944 401.343Z" fill="#209886"/>
<path id="path64" d="M557.139 378.382C461.858 410.299 365.986 339.255 388.406 242.288C403.66 176.318 480.03 140.319 542.453 159.028C587.885 172.642 626.283 205.81 624.427 282.1C624.427 282.1 618.391 315.745 603.16 334.84C587.928 353.935 569.892 369.934 569.892 369.934L557.139 378.382Z" fill="#209886"/>
<path id="path66" d="M388.41 242.291C365.988 339.255 461.862 410.297 557.139 378.386L559.722 376.67C468.216 366.56 396.932 288.974 417.776 190.513C403.639 204.427 393.12 221.934 388.41 242.291Z" fill="#209886"/>
<path id="path68" d="M583.003 353.712C566.537 370.255 546.005 382.353 523.626 388.703C518.889 390.043 514.057 391.14 509.266 391.96C507.067 392.342 504.698 392.689 502.016 393.019C494.885 393.857 487.652 394.136 480.53 393.851C443.787 386.32 411.883 365.152 392.959 335.74C374.886 307.652 369.571 274.474 377.585 239.792C384.922 208.061 405.789 180.811 436.343 163.065C469.796 143.631 510.819 138.338 546.079 148.907C565.791 154.815 582.46 163.583 595.633 174.974C610.073 194.195 619.192 217.04 622.012 241.06C626.924 282.81 612.706 323.87 583.003 353.712ZM485.944 401.343C491.588 401.343 497.266 401.011 502.898 400.348C505.725 400.001 508.211 399.637 510.524 399.235C515.56 398.374 520.648 397.217 525.64 395.805C549.234 389.11 570.88 376.357 588.236 358.92C619.537 327.472 634.521 284.2 629.344 240.197C626.357 214.748 616.656 190.548 601.291 170.216L601.06 169.91L600.77 169.658C586.755 157.45 569.069 148.089 548.198 141.835C511.021 130.692 467.822 136.243 432.634 156.68C400.298 175.463 378.192 204.39 370.393 238.13C361.918 274.798 367.574 309.932 386.75 339.734C406.795 370.888 440.545 393.271 479.348 401.145L479.927 401.215C481.923 401.3 483.933 401.343 485.944 401.343Z" fill="#209886"/>
<path id="path70" d="M555.508 375.035C508.56 390.593 458.358 381.116 424.382 350.257C394.365 322.991 382.564 283.942 392.003 243.121C398.506 215 417.002 190.849 444.086 175.118C473.754 157.888 510.131 153.194 541.393 162.563C595.488 178.775 622.185 218.865 620.744 281.714C620.138 284.881 614.036 315.282 600.273 332.537C586.249 350.119 569.581 365.253 567.629 367.006L555.508 375.035ZM510.352 389.779C526.257 389.779 542.465 387.19 558.312 381.883L558.772 381.728L572.342 372.695C573.087 372.035 590.79 356.264 606.044 337.14C621.679 317.541 627.807 284.163 628.061 282.752L628.117 282.188C629.741 215.429 601.276 172.803 543.512 155.492C510.332 145.547 471.778 150.497 440.378 168.733C411.511 185.501 391.776 211.328 384.811 241.456C374.752 284.96 387.367 326.607 419.42 355.721C443.963 378.015 476.459 389.779 510.352 389.779Z" fill="#209886"/>
<path id="path72" d="M329.669 260.888C333.115 269.759 339.052 276.683 347.042 280.01C365.711 287.778 388.507 272.941 397.961 246.875C398.739 244.727 399.408 242.567 399.955 240.416C406.111 216.408 398.402 192.716 381.273 185.588C362.604 177.817 339.8 192.646 330.346 218.721C324.936 233.64 325.068 249.01 329.669 260.888Z" fill="white"/>
<path id="path74" d="M357.433 278.383C361.117 278.383 364.925 277.544 368.728 275.874C379.747 271.027 389.378 259.715 394.493 245.613C394.741 244.928 394.977 244.242 395.2 243.556C393.603 244.292 391.823 244.791 389.932 244.791C387.062 244.791 383.935 243.639 380.819 240.405C379.202 246.485 376.553 252.124 373.162 256.921C372.894 257.353 372.617 257.778 372.332 258.199C367.423 265.47 361.078 269.887 354.577 271.285C353.224 271.698 351.847 272.006 350.453 272.196C349.32 272.351 348.198 272.427 347.091 272.427C344.929 272.427 342.827 272.132 340.808 271.55C343.046 273.697 345.605 275.413 348.456 276.601C351.316 277.79 354.331 278.383 357.433 278.383Z" fill="#8AE2D5"/>
<path id="path76" d="M370.88 187.211C373.982 187.211 376.997 187.806 379.857 188.995C396.703 196.008 403.27 221.407 394.493 245.613C389.378 259.715 379.747 271.027 368.728 275.874C361.722 278.953 354.713 279.202 348.456 276.601C331.61 269.586 325.043 244.188 333.82 219.982C338.933 205.881 348.566 194.568 359.585 189.722C363.388 188.051 367.194 187.211 370.88 187.211ZM357.435 285.779C362.125 285.779 366.93 284.728 371.7 282.63C384.722 276.904 395.559 264.33 401.434 248.128C411.534 220.272 403.127 190.686 382.694 182.181C374.529 178.782 365.511 179.052 356.613 182.965C343.591 188.689 332.754 201.265 326.879 217.465C316.779 245.324 325.186 274.909 345.619 283.415C349.406 284.993 353.377 285.779 357.435 285.779Z" fill="#209886"/>
<path id="path78" d="M321.134 236.889C320.44 258.476 333.545 274.112 350.402 271.814C367.26 269.513 381.488 250.148 382.18 228.56C382.874 206.971 369.769 191.335 352.913 193.635C336.054 195.935 321.826 215.301 321.134 236.889Z" fill="white"/>
<path id="path80" d="M356.215 193.794C361.78 193.794 366.928 195.807 371.258 199.712C378.337 206.095 382.178 216.604 381.796 228.548C381.108 249.921 367.002 269.158 350.35 271.43C343.542 272.355 337.219 270.389 332.056 265.737C324.977 259.354 321.136 248.843 321.518 236.901C322.206 215.526 336.312 196.291 352.964 194.017C354.061 193.868 355.147 193.794 356.215 193.794ZM347.091 272.427C348.198 272.427 349.32 272.351 350.453 272.196C367.463 269.875 381.868 250.305 382.566 228.573C382.956 216.402 379.025 205.674 371.774 199.138C366.438 194.329 359.896 192.291 352.861 193.253C335.852 195.574 321.446 215.142 320.748 236.876C320.358 249.045 324.29 259.775 331.54 266.309C336.015 270.344 341.338 272.427 347.091 272.427Z" fill="#209886"/>
<path id="path82" d="M354.577 271.285C361.078 269.887 367.423 265.47 372.332 258.199C372.617 257.778 372.894 257.353 373.162 256.921C368.231 263.901 361.734 269.098 354.577 271.285Z" fill="#8C7B94"/>
<path id="path84" d="M347.785 271.643C348.632 271.618 349.487 271.548 350.35 271.43C361.937 269.85 372.291 260.054 377.75 247.042C378.826 243.761 379.557 240.362 379.941 236.94C374.157 244.12 366.833 247.817 359.68 247.817C353.412 247.817 347.275 244.979 342.418 239.168C335.693 231.127 332.971 219.231 334.29 207.551C333.601 208.396 332.936 209.308 332.294 210.256C321.522 226.215 321.756 249.884 332.814 263.124C337.078 268.227 342.327 271.033 347.785 271.643Z" fill="#8AE2D5"/>
<path id="path86" d="M350.071 271.771C351.57 271.771 353.078 271.607 354.577 271.285C361.734 269.098 368.231 263.901 373.162 256.921C375.082 253.842 376.611 250.509 377.75 247.042C372.291 260.054 361.937 269.85 350.35 271.43C349.487 271.547 348.632 271.618 347.785 271.642C348.543 271.729 349.307 271.771 350.071 271.771Z" fill="#209886"/>
<path id="path88" d="M358.257 195.343C360.334 195.343 362.341 195.743 364.227 196.545C376.493 201.765 380.802 221.833 373.837 241.281C369.581 253.167 361.852 262.532 353.164 266.331C348.367 268.427 343.645 268.605 339.505 266.843C327.24 261.621 322.929 241.553 329.894 222.107C334.152 210.221 341.879 200.856 350.567 197.057C353.179 195.915 355.771 195.343 358.257 195.343ZM345.476 275.44C348.962 275.44 352.549 274.657 356.122 273.094C366.637 268.498 375.859 257.534 380.788 243.769C389.188 220.317 383.183 196.59 367.118 189.753C361.059 187.174 354.315 187.362 347.61 190.294C337.095 194.891 327.874 205.854 322.943 219.619C314.545 243.071 320.548 266.798 336.614 273.635C339.443 274.839 342.422 275.44 345.476 275.44Z" fill="#209886"/>
<path id="path90" d="M601.113 295.751C601.266 295.314 601.415 294.874 601.561 294.428C602.21 292.437 602.807 290.36 603.35 288.208C603.478 287.712 603.591 287.219 603.701 286.721L603.703 286.69C604.498 282.255 605.324 276.388 605.702 269.693C606.856 249.502 603.998 221.777 584.172 203.029C559.06 179.281 529.187 173.921 512.903 173.921C505.149 173.921 500.478 175.135 500.862 176.159C500.862 176.159 558.136 197.383 580.178 240.622C580.203 240.667 580.226 240.713 580.248 240.758C584.88 249.863 586.962 260.058 586.357 270.255C585.983 276.545 585.233 281.895 584.283 286.628C590.427 289.513 596.101 292.586 601.113 295.751Z" fill="#25C9B0"/>
<path id="path92" d="M435.442 242.357C442.348 242.357 449.555 238.413 454.017 231.439C460.536 221.25 458.734 208.458 449.99 202.864C447.234 201.098 444.113 200.26 440.931 200.26C434.026 200.26 426.819 204.206 422.356 211.179C415.837 221.368 417.64 234.161 426.383 239.755C429.14 241.52 432.26 242.357 435.442 242.357Z" fill="#25C9B0"/>
<path id="path94" d="M419.038 262.637C420.479 261.989 421.828 260.946 422.902 259.544C425.939 255.579 425.642 250.251 422.241 247.645C420.992 246.689 419.501 246.231 417.96 246.231C417.219 246.231 416.467 246.338 415.726 246.545C416.535 252.031 417.644 257.396 419.038 262.637Z" fill="#25C9B0"/>
<path id="path96" d="M415.521 263.416C416.696 263.416 417.896 263.149 419.038 262.637C417.644 257.396 416.535 252.031 415.726 246.544C413.809 247.081 411.967 248.294 410.58 250.105C407.544 254.069 407.84 259.395 411.241 262.001C412.49 262.959 413.983 263.416 415.521 263.416Z" fill="#918796"/>
<path id="path98" d="M535.56 478.372C533.474 488.437 523.624 494.904 513.559 492.818C503.494 490.733 497.027 480.883 499.113 470.818C501.198 460.753 511.048 454.286 521.113 456.371C531.178 458.457 537.645 468.307 535.56 478.372Z" fill="white"/>
<path id="path100" d="M520.471 489.364C526.148 488.149 530.87 483.697 532.122 477.659C532.417 476.228 532.506 474.787 532.392 473.37C529.328 475.892 525.474 477.422 521.386 477.599L520.471 489.364Z" fill="#8AE2D5"/>
<path id="path102" d="M532.122 477.659C530.432 485.81 522.422 491.069 514.272 489.378C506.119 487.691 500.862 479.683 502.551 471.53C504.242 463.378 512.244 458.124 520.401 459.809C524.351 460.629 527.744 462.936 529.957 466.306C532.171 469.678 532.939 473.709 532.122 477.659ZM517.34 496.719C527.605 496.719 536.836 489.521 538.998 479.084C540.198 473.298 539.072 467.39 535.828 462.451C532.584 457.511 527.612 454.131 521.826 452.931C509.884 450.461 498.15 458.16 495.674 470.103C493.198 482.049 500.901 493.781 512.847 496.257C514.352 496.568 515.858 496.719 517.34 496.719Z" fill="#209886"/>
<path id="path104" d="M494.115 521.111L400.104 513.795C388.976 512.934 380.571 503.117 381.436 491.976L385.331 441.949C386.091 432.194 393.713 424.547 403.074 423.377C404.401 423.203 405.764 423.176 407.152 423.282L501.149 430.596C512.289 431.459 520.694 441.276 519.814 452.415L516.739 492.038L515.934 502.443C515.069 513.584 505.241 521.972 494.115 521.111Z" fill="white"/>
<path id="path106" d="M308.015 428.775C308.015 428.775 295.539 428.523 291.774 442.92C289.375 452.099 294.541 462.556 294.541 462.556C294.541 462.556 328.917 481.903 387.852 482.196C387.852 482.196 406.541 465.752 389.325 449.012C389.325 449.012 335.606 444.493 308.015 428.775Z" fill="white"/>
<path id="path108" d="M494.115 521.111L400.104 513.795C388.976 512.934 380.571 503.117 381.436 491.976L385.331 441.949C386.091 432.194 393.713 424.547 403.074 423.377C404.401 423.203 405.764 423.176 407.152 423.282L501.149 430.596C512.289 431.459 520.694 441.276 519.814 452.415L516.739 492.038L515.934 502.443C515.069 513.584 505.241 521.972 494.115 521.111Z" fill="white"/>
<path id="path110" d="M308.015 428.775C308.015 428.775 295.539 428.523 291.774 442.92C289.375 452.099 294.541 462.556 294.541 462.556C294.541 462.556 328.917 481.903 387.852 482.196C387.852 482.196 406.541 465.752 389.325 449.012C389.325 449.012 335.606 444.493 308.015 428.775Z" fill="white"/>
<path id="path112" d="M488.401 533.749C496.457 533.749 503.614 528.946 506.865 521.894C503.515 523.68 499.707 524.685 495.703 524.685C495.699 524.685 495.693 524.685 495.687 524.685C495.678 524.685 495.672 524.685 495.664 524.685C495.414 524.685 495.164 524.681 494.914 524.673C494.557 524.663 494.198 524.642 493.841 524.615L406.033 517.782L399.831 517.301C395.827 516.991 392.044 515.697 388.755 513.555C383.972 510.451 380.402 505.692 378.799 500.159C378.797 500.151 378.795 500.145 378.793 500.139C378.655 499.664 378.533 499.187 378.428 498.704H378.426C378.424 498.693 378.422 498.683 378.419 498.675C378.419 498.669 378.417 498.662 378.415 498.656C378.415 498.652 378.415 498.65 378.415 498.648C377.926 496.424 377.752 494.095 377.938 491.709L378.694 481.996C337.301 480.375 309.463 469.558 299.078 464.8C298.289 466.75 297.482 468.728 296.658 470.746C308.269 480.152 327.961 492.025 374.925 494.675L374.151 504.552C373.29 515.69 381.692 525.505 392.823 526.375L486.83 533.687C487.356 533.728 487.881 533.749 488.401 533.749Z" fill="#8AE2D5"/>
<path id="path114" d="M296.658 470.746C297.482 468.728 298.289 466.75 299.078 464.8C297.738 464.185 296.687 463.671 295.937 463.291C295.316 464.807 294.622 466.486 293.835 468.385C294.723 469.149 295.66 469.938 296.658 470.746Z" fill="#209886"/>
<path id="path116" d="M381.327 448.159L381.606 444.557C380.867 445.621 380.226 446.759 379.698 447.96C380.261 448.031 380.805 448.097 381.327 448.159Z" fill="#8AE2D5"/>
<path id="path118" d="M494.115 521.111L400.104 513.795C388.976 512.934 380.571 503.117 381.436 491.976L385.331 441.949C386.091 432.194 393.713 424.547 403.074 423.377C404.401 423.203 405.764 423.176 407.152 423.282L501.149 430.596C512.289 431.459 520.694 441.276 519.814 452.415L516.739 492.038L515.934 502.443C515.069 513.584 505.241 521.972 494.115 521.111Z" fill="white"/>
<path id="path120" d="M497.886 517.514C501.07 517.09 504.075 515.761 506.588 513.611C510.007 510.683 512.083 506.621 512.43 502.173L513.103 493.502C504.228 496.911 490.958 500.742 472.835 500.742C472.344 500.742 471.848 500.74 471.351 500.734C448.235 500.469 434.21 496.267 425.636 489.031C420.32 486.723 416.482 480.967 415.682 474.05C413.582 467.958 412.657 460.991 412.174 453.342L409.029 493.768C408.68 498.216 410.101 502.551 413.027 505.972C415.953 509.392 420.013 511.465 424.459 511.808L497.886 517.514Z" fill="#8AE2D5"/>
<path id="path122" d="M405.564 426.728C406 426.728 406.437 426.745 406.877 426.78L500.882 434.094C510.113 434.813 517.039 442.905 516.32 452.138L512.43 502.173C512.083 506.621 510.007 510.683 506.588 513.611C503.168 516.537 498.836 517.945 494.384 517.613L400.381 510.299C391.148 509.58 384.222 501.485 384.941 492.255L388.833 442.22C389.517 433.429 396.889 426.728 405.564 426.728ZM495.703 524.685C508.006 524.685 518.462 515.184 519.432 502.716L523.325 452.681C524.343 439.589 514.52 428.11 501.427 427.092L407.422 419.777C401.101 419.29 394.954 421.299 390.107 425.444C385.263 429.59 382.322 435.356 381.831 441.675L377.938 491.709C376.92 504.804 386.744 516.283 399.836 517.301L493.841 524.615C494.464 524.663 495.088 524.685 495.703 524.685Z" fill="#209886"/>
<path id="path124" d="M497.917 521.035C496.678 521.194 495.416 521.218 494.115 521.111L400.104 513.795C391.949 513.157 385.259 507.728 382.611 500.465C381.645 497.828 381.211 494.95 381.451 491.978L383.171 469.752L383.739 462.417L385.331 441.949C386.196 430.809 396.024 422.418 407.152 423.282L427.465 424.868C417.964 425.904 410.192 433.603 409.419 443.455L407.309 470.477L405.523 493.496C404.659 504.622 413.062 514.451 424.188 515.315L497.917 521.035Z" fill="white"/>
<path id="path126" d="M407.996 510.889C407.893 510.774 407.792 510.658 407.691 510.538C403.542 505.69 401.531 499.54 402.027 493.221L403.546 473.668C401.535 475.041 399.474 475.879 397.451 475.879C397.029 475.879 396.608 475.844 396.191 475.768C395.253 475.6 394.374 475.326 393.548 474.964C391.022 479.412 387.852 482.198 387.852 482.198C387.14 482.194 386.434 482.188 385.73 482.18L384.945 492.253V492.255C384.596 496.705 386.017 501.039 388.945 504.461C391.871 507.881 395.929 509.954 400.375 510.299L407.996 510.889Z" fill="#8AE2D5"/>
<path id="path128" d="M413.77 427.315C409.335 431.292 406.408 436.902 405.919 443.188L402.027 493.221C401.531 499.54 403.542 505.69 407.691 510.538C407.792 510.658 407.893 510.774 407.996 510.889L400.375 510.299C395.929 509.954 391.871 507.881 388.945 504.461C386.017 501.039 384.596 496.705 384.945 492.255V492.253L388.837 442.22C389.182 437.77 391.255 433.708 394.675 430.782C398.095 427.856 402.423 426.427 406.883 426.778L413.77 427.315ZM495.664 524.685C496.556 524.685 497.452 524.634 498.34 524.526L498.192 517.539L424.459 511.808C420.013 511.465 415.953 509.392 413.027 505.972C410.101 502.551 408.68 498.216 409.029 493.768L412.921 443.731C413.545 435.7 419.821 429.231 427.841 428.351L427.732 421.359L407.427 419.775C401.103 419.284 394.954 421.299 390.109 425.446C385.263 429.592 382.322 435.358 381.835 441.679L377.942 491.707C377.447 498.026 379.458 504.178 383.607 509.029C387.753 513.875 393.517 516.814 399.831 517.301L493.843 524.611C494.446 524.661 495.055 524.685 495.664 524.685Z" fill="#209886"/>
<path id="path130" d="M444.508 471.766C444.353 473.614 440.506 488.325 440.506 488.325C440.506 488.325 435.777 487.931 429.97 487.445C422.716 486.838 417.462 478.834 418.237 469.571C419.011 460.303 425.52 453.284 432.774 453.891C437.67 454.3 443.31 454.771 443.31 454.771C443.31 454.771 444.76 468.753 444.508 471.766Z" fill="#22A7F0"/>
<path id="path132" d="M433.662 485.11C430.521 482.078 428.589 477.224 428.7 471.821C428.711 471.367 428.733 470.911 428.772 470.45C429.27 464.503 432.13 459.479 436.033 456.807L432.553 456.516C432.339 456.497 432.122 456.489 431.905 456.489C429.446 456.489 427.013 457.656 425.006 459.818C422.66 462.349 421.188 465.891 420.861 469.79C420.209 477.593 424.395 484.335 430.189 484.821L433.662 485.11Z" fill="#2976B4"/>
<path id="path134" d="M441.883 471.543C441.778 472.565 440.173 479.096 438.515 485.517L430.189 484.821C424.395 484.335 420.209 477.593 420.861 469.79C421.188 465.891 422.66 462.349 425.006 459.818C427.189 457.464 429.877 456.291 432.553 456.516L440.908 457.214C441.429 462.55 442.03 469.775 441.883 471.543ZM442.492 491.133L443.054 488.992C443.969 485.49 446.971 473.911 447.132 471.985C447.397 468.817 446.081 455.956 445.93 454.5L445.705 452.328L432.993 451.266C428.665 450.903 424.452 452.667 421.144 456.237C417.999 459.628 416.035 464.284 415.612 469.35C414.718 480.048 421.06 489.343 429.749 490.07L442.492 491.133Z" fill="#209886"/>
<path id="path136" d="M455.043 472.645C454.269 481.911 447.76 488.932 440.506 488.325C433.251 487.718 427.998 479.716 428.772 470.45C429.547 461.185 436.056 454.164 443.31 454.771C450.564 455.378 455.818 463.38 455.043 472.645Z" fill="#22A7F0"/>
<path id="path138" d="M443.26 488.195C448.336 487.274 452.673 482.69 454.362 476.509C452.671 482.685 448.332 487.268 443.263 488.191C443.263 488.193 443.26 488.193 443.26 488.195Z" fill="#8AE2D5"/>
<path id="path140" d="M433.669 485.112C430.526 482.08 428.591 477.226 428.7 471.822C428.589 477.224 430.522 482.078 433.662 485.11L433.669 485.112Z" fill="#2E568D"/>
<path id="path142" d="M441.379 488.364C442.015 488.364 442.643 488.306 443.26 488.195C443.26 488.193 443.263 488.193 443.263 488.191C442.643 488.304 442.015 488.362 441.379 488.362C441.09 488.362 440.799 488.35 440.506 488.325C437.908 488.108 435.568 486.944 433.669 485.112L433.662 485.11C435.562 486.944 437.904 488.11 440.502 488.329C440.795 488.354 441.088 488.364 441.379 488.364Z" fill="#209886"/>
<path id="path144" d="M441.379 488.362C442.015 488.362 442.643 488.304 443.263 488.191C448.332 487.268 452.671 482.685 454.362 476.509C454.699 475.278 454.93 473.981 455.041 472.641C455.151 471.392 455.14 470.157 455.029 468.961C452.757 474.841 447.985 478.861 442.699 478.861C442.406 478.861 442.11 478.849 441.813 478.822C435.548 478.299 430.767 472.259 430.096 464.639C429.402 466.426 428.952 468.383 428.772 470.452C428.733 470.913 428.711 471.369 428.7 471.822C428.591 477.226 430.526 482.08 433.669 485.112C435.568 486.943 437.908 488.108 440.506 488.325C440.799 488.35 441.09 488.362 441.379 488.362Z" fill="#2976B4"/>
<path id="path146" d="M428.772 470.452C428.717 471.084 428.694 471.708 428.706 472.325C430.753 465.187 436.357 460.249 442.484 460.765C449.243 461.337 454.275 468.325 454.279 476.777C454.663 475.46 454.917 474.081 455.041 472.641C455.82 463.382 450.564 455.374 443.312 454.767C436.058 454.17 429.551 461.183 428.772 470.452Z" fill="white"/>
<path id="path148" d="M452.419 472.427C451.766 480.23 446.511 486.167 440.725 485.7C438.04 485.475 435.591 483.875 433.83 481.19C431.936 478.304 431.071 474.568 431.397 470.669C432.05 462.866 437.313 456.912 443.091 457.395C445.774 457.621 448.223 459.221 449.986 461.907C451.88 464.792 452.743 468.53 452.419 472.427ZM441.367 490.995C449.614 490.995 456.811 483.119 457.668 472.866C458.091 467.801 456.927 462.882 454.389 459.016C451.719 454.948 447.863 452.508 443.529 452.146C434.829 451.417 427.042 459.533 426.148 470.229C425.724 475.297 426.889 480.214 429.425 484.079C432.095 488.149 435.952 490.588 440.287 490.95C440.648 490.981 441.01 490.995 441.367 490.995Z" fill="#209886"/>
<path id="path150" d="M464.92 521.109C466.256 521.109 467.4 520.099 467.539 518.742L470.632 488.292C470.81 486.553 471.84 485.029 473.387 484.218L482.733 479.307C485.925 477.63 488.007 474.483 488.298 470.89L491.631 429.894C491.749 428.444 490.669 427.172 489.219 427.054C487.769 426.953 486.499 428.017 486.382 429.466L483.049 470.463C482.902 472.247 481.87 473.81 480.284 474.644L470.938 479.553C467.822 481.19 465.748 484.257 465.391 487.761L462.298 518.21C462.151 519.655 463.204 520.948 464.652 521.097C464.743 521.105 464.831 521.109 464.92 521.109Z" fill="#209886"/>
<path id="path152" d="M308.015 428.775C308.015 428.775 295.539 428.523 291.774 442.92C289.375 452.099 294.541 462.556 294.541 462.556C294.541 462.556 328.917 481.903 387.852 482.196C387.852 482.196 406.541 465.752 389.325 449.012C389.325 449.012 335.606 444.493 308.015 428.775Z" fill="white"/>
<path id="path154" d="M293.457 459.964V459.962C293.065 458.905 292.621 457.575 292.226 456.064C292.621 457.575 293.065 458.907 293.457 459.964Z" fill="#8C7B94"/>
<path id="path156" d="M295.937 463.291V463.289C295.012 462.82 294.541 462.556 294.541 462.556C294.541 462.556 294.06 461.579 293.457 459.962V459.964C294.058 461.583 294.539 462.558 294.539 462.558C294.539 462.558 295.01 462.824 295.937 463.291Z" fill="#209886"/>
<path id="path158" d="M378.694 481.996C337.303 480.375 309.465 469.556 299.08 464.796L299.078 464.801C309.463 469.558 337.301 480.375 378.694 481.996Z" fill="#8C7B94"/>
<path id="path160" d="M299.078 464.801L299.08 464.796C297.738 464.181 296.689 463.669 295.937 463.289V463.291C296.687 463.671 297.738 464.185 299.078 464.801Z" fill="#209886"/>
<path id="path164" d="M393.548 474.964C395.978 470.688 397.814 464.877 395.671 458.531C395.671 458.535 395.668 458.539 395.668 458.542C397.806 464.881 395.972 470.69 393.546 474.962L393.548 474.964Z" fill="#8AE2D5"/>
<path id="path166" d="M387.852 482.198C387.852 482.198 391.022 479.412 393.548 474.964L393.546 474.962C391.02 479.41 387.852 482.196 387.852 482.196C387.14 482.192 386.434 482.186 385.73 482.177V482.18C386.434 482.188 387.14 482.194 387.852 482.198Z" fill="#8C7B94"/>
<path id="path168" d="M385.73 482.18V482.178C383.342 482.147 381.001 482.085 378.698 481.996C381.001 482.087 383.342 482.149 385.73 482.18Z" fill="#209886"/>
<path id="path170" d="M291.599 443.649C291.652 443.405 291.71 443.163 291.774 442.92C291.799 442.827 291.822 442.736 291.846 442.643C291.822 442.736 291.797 442.829 291.774 442.92C291.71 443.161 291.652 443.405 291.599 443.649Z" fill="#8C7B94"/>
<path id="path172" d="M387.852 482.196C387.852 482.196 391.02 479.41 393.546 474.962C395.972 470.69 397.806 464.881 395.668 458.542C395.646 458.608 395.623 458.672 395.6 458.738C393.217 465.451 386.77 469.866 379.687 469.866C379.469 469.866 379.25 469.862 379.029 469.854C325.603 467.791 294.713 450.407 294.713 450.407C294.713 450.407 292.98 446.897 291.987 442.168C291.939 442.325 291.892 442.484 291.846 442.643C291.822 442.736 291.799 442.827 291.774 442.92C291.71 443.163 291.652 443.405 291.599 443.649C290.659 447.975 291.305 452.516 292.226 456.064C292.621 457.575 293.065 458.905 293.457 459.962C294.06 461.579 294.541 462.556 294.541 462.556C294.541 462.556 295.012 462.82 295.937 463.289C296.689 463.669 297.738 464.181 299.08 464.796C309.465 469.556 337.303 480.375 378.694 481.996H378.698C381.001 482.085 383.342 482.147 385.73 482.177C386.434 482.186 387.14 482.192 387.852 482.196Z" fill="#8AE2D5"/>
<path id="path174" d="M306.163 432.779C307.328 432.779 308.517 433.061 309.626 433.623C333.095 445.497 369.998 450.492 384.776 452.088C386.886 452.316 388.788 453.427 389.992 455.134C394.473 461.484 394.138 468.356 389.001 475.557C387.594 477.527 385.308 478.661 382.857 478.611C339.387 477.577 310.477 466.219 300.065 461.383C298.184 460.509 296.757 458.909 296.15 456.997C295.045 453.505 293.975 448.382 295.171 443.808C296.544 438.559 299.365 435.021 303.555 433.289C304.379 432.948 305.265 432.779 306.163 432.779ZM383.037 485.638C387.677 485.638 392.024 483.412 394.718 479.635C401.578 470.023 401.938 459.882 395.73 451.085C393.364 447.729 389.647 445.551 385.531 445.105C374.3 443.892 335.864 439.025 312.796 427.356C309.002 425.435 304.656 425.231 300.87 426.798C296.517 428.597 290.816 432.702 288.377 442.032C286.756 448.227 288.07 454.742 289.455 459.12C290.653 462.905 293.443 466.05 297.106 467.753C307.918 472.773 337.9 484.567 382.69 485.634C382.806 485.636 382.921 485.638 383.037 485.638Z" fill="#209886"/>
<path id="path176" d="M562.754 387.45C566.743 377.067 520.628 360.045 500.647 354.019C455.273 340.335 445.2 305.67 459.797 285.422C487.206 247.41 585.826 277.813 614.909 306.341C625.281 316.513 647.735 341.497 642.133 380.875L562.754 387.45Z" fill="white"/>
<path id="path178" d="M508.607 356.557C505.679 355.579 502.982 354.724 500.647 354.019C480.044 347.806 466.719 337.266 459.677 325.717C466.719 337.268 480.04 347.808 500.643 354.022C502.982 354.726 505.677 355.581 508.607 356.557ZM459.626 325.63C459.617 325.617 459.609 325.601 459.601 325.589C459.609 325.603 459.617 325.615 459.626 325.63Z" fill="#209886"/>
<path id="path180" d="M562.909 385.292C599.905 367.491 533.42 347.585 514.206 342.375C476.323 332.097 456.46 314.053 454.236 298.217C452.501 306.896 454.131 316.548 459.601 325.589C459.609 325.601 459.617 325.617 459.626 325.63C459.63 325.636 459.634 325.644 459.638 325.65C459.65 325.669 459.663 325.69 459.673 325.708C459.675 325.71 459.677 325.712 459.677 325.717C466.719 337.266 480.044 347.806 500.647 354.019C502.982 354.724 505.679 355.578 508.607 356.557C529.065 363.374 560.996 376.156 562.909 385.292Z" fill="#8AE2D5"/>
<path id="path182" d="M562.159 386.308L562.993 386.085C562.995 386.035 562.993 385.986 562.991 385.938C562.987 385.835 562.977 385.732 562.964 385.628C562.698 385.856 562.427 386.083 562.159 386.308Z" fill="#209886"/>
<path id="path184" d="M558.128 387.384L559.262 387.082C559.266 387.035 559.272 386.987 559.278 386.942C558.907 387.09 558.523 387.237 558.128 387.384Z" fill="#8C7B94"/>
<path id="path186" d="M559.262 387.082L562.159 386.308C562.427 386.083 562.698 385.856 562.964 385.628C562.95 385.517 562.931 385.405 562.907 385.294C561.833 385.856 560.625 386.405 559.278 386.942C559.272 386.987 559.266 387.035 559.262 387.082Z" fill="#209886"/>
<path id="path188" d="M562.991 385.938C562.985 385.723 562.956 385.509 562.909 385.292C562.909 385.292 562.909 385.294 562.907 385.294C562.931 385.405 562.95 385.517 562.964 385.628C562.977 385.732 562.987 385.835 562.991 385.938Z" fill="#8AE2D5"/>
<path id="path190" d="M562.754 390.962C564.164 390.962 565.496 390.105 566.033 388.709C566.562 387.334 566.915 385.129 565.599 382.442C558.494 367.94 503.978 351.356 501.661 350.658C479.743 344.048 464.171 331.393 458.936 315.939C455.52 305.857 456.873 295.483 462.647 287.477C469.288 278.267 480.996 272.884 497.452 271.479C536.629 268.132 592.405 289.187 612.45 308.848C633.636 329.628 642.452 353.693 638.656 380.379C638.383 382.3 639.718 384.078 641.638 384.352C643.557 384.621 645.336 383.289 645.61 381.368C649.738 352.349 640.236 326.264 617.369 303.834C595.839 282.717 538.507 260.925 496.853 264.481C478.266 266.067 464.842 272.423 456.949 283.368C449.831 293.24 448.132 305.932 452.282 318.192C458.257 335.825 475.514 350.108 499.633 357.381C525.516 365.187 555.685 378.17 559.293 385.533C559.46 385.876 559.506 386.114 559.477 386.19C558.781 388.001 559.683 390.033 561.494 390.729C561.909 390.888 562.335 390.962 562.754 390.962Z" fill="#209886"/>
<path id="path192" d="M244.091 350.352C244.641 350.352 245.196 350.205 245.698 349.9C283.785 326.741 297.94 269.772 298.525 267.358C298.927 265.695 297.907 264.023 296.243 263.62C294.583 263.217 292.908 264.239 292.505 265.9C292.367 266.468 278.35 322.797 242.481 344.607C241.018 345.495 240.554 347.401 241.442 348.863C242.026 349.821 243.046 350.352 244.091 350.352Z" fill="#209886"/>
<path id="path194" d="M552.887 378.62H552.91C572.949 378.479 590.949 368.229 602.294 350.499C613.179 333.491 615.519 313.166 608.403 297.451C607.699 295.894 605.865 295.202 604.304 295.906C602.745 296.612 602.055 298.448 602.759 300.007C609.02 313.83 606.844 331.899 597.078 347.16C586.881 363.091 570.768 372.299 552.867 372.425C551.155 372.437 549.777 373.835 549.79 375.545C549.802 377.249 551.186 378.62 552.887 378.62Z" fill="#209886"/>
<path id="path196" d="M477.135 598.435C478.527 598.435 479.79 597.491 480.139 596.081C486.667 569.75 553.29 557.856 578.409 555.493C580.112 555.334 581.364 553.823 581.205 552.121C581.043 550.417 579.532 549.164 577.83 549.325C573.965 549.689 483.043 558.624 474.126 594.592C473.715 596.252 474.727 597.931 476.387 598.342C476.637 598.404 476.889 598.435 477.135 598.435Z" fill="#209886"/>
<path id="path198" d="M339.893 605.869C341.9 605.869 343.761 605.786 345.45 605.619C347.153 605.45 348.394 603.932 348.225 602.228C348.056 600.529 346.544 599.282 344.836 599.455C320.808 601.85 261.103 586.004 256.12 565.767C255.709 564.106 254.028 563.088 252.37 563.499C250.71 563.91 249.694 565.587 250.102 567.249C253.875 582.559 277.792 592.51 291.714 597.08C308.255 602.509 327.024 605.869 339.893 605.869Z" fill="#209886"/>
<path id="path200" d="M585.467 627.694C584.76 627.502 584.277 627.394 583.709 627.271C583.156 627.138 582.623 627.072 582.078 626.973C580.998 626.804 579.92 626.663 578.85 626.581C576.707 626.36 574.574 626.343 572.449 626.341C568.199 626.412 563.999 626.858 559.861 627.556C555.729 628.287 551.65 629.216 547.704 630.581C546.709 630.874 545.738 631.266 544.77 631.657C543.799 632.035 542.833 632.423 541.879 632.842C539.979 633.703 538.12 634.665 536.309 635.721C538.426 635.671 540.479 635.481 542.517 635.277C544.569 635.146 546.581 634.895 548.596 634.715L554.605 634.172C555.603 634.097 556.592 633.959 557.587 633.901L560.569 633.715C564.536 633.513 568.486 633.412 572.397 633.538C574.351 633.583 576.298 633.695 578.214 633.85C579.179 633.918 580.125 634.033 581.068 634.128L582.458 634.306C582.894 634.36 583.412 634.444 583.699 634.492L583.974 634.537C585.886 634.851 587.691 633.558 588.005 631.646C588.3 629.862 587.172 628.165 585.467 627.694Z" fill="#209886"/>
<path id="path202" d="M283.799 644.296C282.345 639.658 279.368 635.557 275.853 632.094C272.324 628.59 268.033 625.901 263.502 623.764C261.187 622.841 258.864 621.844 256.438 621.247C255.232 620.927 254.032 620.514 252.801 620.322L249.113 619.69C247.883 619.444 246.644 619.391 245.405 619.312C244.166 619.225 242.927 619.155 241.686 619.099C239.216 619.103 236.75 619.285 234.295 619.446C232.364 619.574 230.902 621.243 231.03 623.172C231.15 625.001 232.655 626.409 234.454 626.445L234.826 626.451C237.081 626.486 239.327 626.403 241.564 626.395C242.677 626.469 243.79 626.529 244.905 626.571C246.02 626.612 247.137 626.645 248.227 626.831L251.534 627.227C252.091 627.273 252.628 627.401 253.167 627.52L254.79 627.851C256.997 628.181 259.058 628.966 261.214 629.528C265.398 630.979 269.383 632.97 273.195 635.386C276.993 637.835 280.574 640.736 283.799 644.296Z" fill="#209886"/>
</g>
</g>
</svg>
