<svg width="137" height="137" viewBox="0 0 137 137" fill="none" xmlns="http://www.w3.org/2000/svg">
<path d="M114.994 48H101.784C101.003 44.2003 99.6357 40.8622 97.6825 37.9858C95.7649 35.1094 93.4212 32.6946 90.6513 30.7415C87.9169 28.7528 84.8807 27.2614 81.5426 26.267C78.2045 25.2727 74.7244 24.7756 71.1023 24.7756C64.4972 24.7756 58.5135 26.4446 53.1513 29.7827C47.8246 33.1207 43.581 38.0391 40.4205 44.5376C37.2955 51.0362 35.733 59.0085 35.733 68.4545C35.733 77.9006 37.2955 85.8729 40.4205 92.3714C43.581 98.87 47.8246 103.788 53.1513 107.126C58.5135 110.464 64.4972 112.134 71.1023 112.134C74.7244 112.134 78.2045 111.636 81.5426 110.642C84.8807 109.648 87.9169 108.174 90.6513 106.221C93.4212 104.232 95.7649 101.8 97.6825 98.9233C99.6357 96.0114 101.003 92.6733 101.784 88.9091H114.994C114 94.4844 112.189 99.4737 109.561 103.877C106.933 108.281 103.666 112.027 99.7599 115.116C95.8537 118.17 91.468 120.496 86.603 122.094C81.7734 123.692 76.6065 124.491 71.1023 124.491C61.7983 124.491 53.5241 122.219 46.2798 117.673C39.0355 113.128 33.3359 106.665 29.1811 98.2841C25.0263 89.9034 22.9489 79.9602 22.9489 68.4545C22.9489 56.9489 25.0263 47.0057 29.1811 38.625C33.3359 30.2443 39.0355 23.7812 46.2798 19.2358C53.5241 14.6903 61.7983 12.4176 71.1023 12.4176C76.6065 12.4176 81.7734 13.2166 86.603 14.8146C91.468 16.4126 95.8537 18.7564 99.7599 21.8459C103.666 24.8999 106.933 28.6285 109.561 33.032C112.189 37.3999 114 42.3892 114.994 48Z" fill="#209886"/>
<path d="M114.994 48V54H122.151L120.902 46.953L114.994 48ZM101.784 48L95.907 49.2084L96.8922 54H101.784V48ZM97.6825 37.9858L92.6902 41.314L92.7044 41.3352L92.7187 41.3563L97.6825 37.9858ZM90.6513 30.7415L87.1223 35.5939L87.1578 35.6197L87.1936 35.645L90.6513 30.7415ZM81.5426 26.267L79.8298 32.0174L79.8298 32.0174L81.5426 26.267ZM53.1513 29.7827L49.9804 24.689L49.9728 24.6937L49.9652 24.6985L53.1513 29.7827ZM40.4205 44.5376L35.0247 41.9135L35.0189 41.9254L35.0132 41.9374L40.4205 44.5376ZM40.4205 92.3714L35.0132 94.9717L35.0189 94.9836L35.0247 94.9956L40.4205 92.3714ZM53.1513 107.126L49.9652 112.211L49.9728 112.215L49.9804 112.22L53.1513 107.126ZM81.5426 110.642L79.8298 104.892L79.8298 104.892L81.5426 110.642ZM90.6513 106.221L94.1387 111.103L94.1446 111.099L94.1505 111.095L90.6513 106.221ZM97.6825 98.9233L92.6996 95.5811L92.6949 95.5881L92.6902 95.5951L97.6825 98.9233ZM101.784 88.9091V82.9091H96.9015L95.9093 87.6898L101.784 88.9091ZM114.994 88.9091L120.901 89.9625L122.159 82.9091H114.994V88.9091ZM109.561 103.877L104.409 100.802L104.409 100.802L109.561 103.877ZM99.7599 115.116L103.455 119.843L103.469 119.833L103.482 119.822L99.7599 115.116ZM86.603 122.094L84.7306 116.394L84.7182 116.398L86.603 122.094ZM46.2798 117.673L43.0909 122.756L43.0909 122.756L46.2798 117.673ZM29.1811 98.2841L34.5568 95.619L34.5568 95.619L29.1811 98.2841ZM86.603 14.8146L84.7182 20.5109L84.7306 20.515L86.603 14.8146ZM99.7599 21.8459L96.0379 26.5519L96.0511 26.5623L96.0644 26.5727L99.7599 21.8459ZM109.561 33.032L104.409 36.1067L104.414 36.1159L104.42 36.1251L109.561 33.032ZM114.994 42H101.784V54H114.994V42ZM107.661 46.7916C106.739 42.3077 105.092 38.2169 102.646 34.6153L92.7187 41.3563C94.1794 43.5076 95.2665 46.0929 95.907 49.2084L107.661 46.7916ZM102.675 34.6576C100.355 31.1785 97.4953 28.2257 94.1089 25.8379L87.1936 35.645C89.3471 37.1635 91.1744 39.0402 92.6902 41.314L102.675 34.6576ZM94.1803 25.8891C90.8792 23.4883 87.2255 21.6993 83.2555 20.5167L79.8298 32.0174C82.5359 32.8234 84.9546 34.0174 87.1223 35.5939L94.1803 25.8891ZM83.2555 20.5167C79.3396 19.3503 75.2812 18.7756 71.1023 18.7756V30.7756C74.1677 30.7756 77.0695 31.1951 79.8298 32.0174L83.2555 20.5167ZM71.1023 18.7756C63.43 18.7756 56.3388 20.7308 49.9804 24.689L56.3222 34.8763C60.6882 32.1584 65.5643 30.7756 71.1023 30.7756V18.7756ZM49.9652 24.6985C43.5503 28.7185 38.6017 34.5585 35.0247 41.9135L45.8162 47.1618C48.5602 41.5196 52.0988 37.523 56.3374 34.8668L49.9652 24.6985ZM35.0132 41.9374C31.3966 49.4582 29.733 58.376 29.733 68.4545H41.733C41.733 59.6411 43.1943 52.6142 45.8277 47.1379L35.0132 41.9374ZM29.733 68.4545C29.733 78.5331 31.3966 87.4509 35.0132 94.9717L45.8277 89.7712C43.1943 84.2949 41.733 77.268 41.733 68.4545H29.733ZM35.0247 94.9956C38.6017 102.351 43.5503 108.191 49.9652 112.211L56.3374 102.042C52.0988 99.3861 48.5602 95.3895 45.8162 89.7473L35.0247 94.9956ZM49.9804 112.22C56.3388 116.178 63.43 118.134 71.1023 118.134V106.134C65.5643 106.134 60.6882 104.751 56.3222 102.033L49.9804 112.22ZM71.1023 118.134C75.2812 118.134 79.3396 117.559 83.2555 116.392L79.8298 104.892C77.0695 105.714 74.1677 106.134 71.1023 106.134V118.134ZM83.2555 116.392C87.2055 115.216 90.8452 113.456 94.1387 111.103L87.1639 101.338C84.9886 102.892 82.5559 104.08 79.8298 104.892L83.2555 116.392ZM94.1505 111.095C97.5153 108.679 100.362 105.72 102.675 102.251L92.6902 95.5951C91.1676 97.8791 89.327 99.7854 87.152 101.347L94.1505 111.095ZM102.665 102.266C105.09 98.6507 106.735 94.5777 107.659 90.1284L95.9093 87.6898C95.2702 90.7688 94.1813 93.3721 92.6996 95.5811L102.665 102.266ZM101.784 94.9091H114.994V82.9091H101.784V94.9091ZM109.088 87.8556C108.207 92.7915 106.628 97.0834 104.409 100.802L114.713 106.952C117.75 101.864 119.793 96.1773 120.901 89.9625L109.088 87.8556ZM104.409 100.802C102.143 104.599 99.3553 107.787 96.0379 110.41L103.482 119.822C107.977 116.267 111.723 111.963 114.713 106.952L104.409 100.802ZM96.0644 110.39C92.7229 113.002 88.9581 115.005 84.7306 116.394L88.4754 127.795C93.978 125.987 98.9845 123.339 103.455 119.843L96.0644 110.39ZM84.7182 116.398C80.5445 117.779 76.0185 118.491 71.1023 118.491V130.491C77.1945 130.491 83.0023 129.606 88.4878 127.791L84.7182 116.398ZM71.1023 118.491C62.8235 118.491 55.6739 116.484 49.4688 112.591L43.0909 122.756C51.3744 127.953 60.7731 130.491 71.1023 130.491V118.491ZM49.4688 112.591C43.2495 108.689 38.2674 103.104 34.5568 95.619L23.8055 100.949C28.4045 110.226 34.8216 117.567 43.0909 122.756L49.4688 112.591ZM34.5568 95.619C30.8962 88.2354 28.9489 79.2444 28.9489 68.4545H16.9489C16.9489 80.6761 19.1563 91.5714 23.8055 100.949L34.5568 95.619ZM28.9489 68.4545C28.9489 57.6647 30.8962 48.6737 34.5568 41.29L23.8055 35.96C19.1563 45.3377 16.9489 56.233 16.9489 68.4545H28.9489ZM34.5568 41.29C38.2674 33.8053 43.2495 28.2205 49.4688 24.3182L43.0909 14.1534C34.8216 19.342 28.4045 26.6834 23.8055 35.96L34.5568 41.29ZM49.4688 24.3182C55.6739 20.4248 62.8235 18.4176 71.1023 18.4176V6.41761C60.7731 6.41761 51.3744 8.95591 43.0909 14.1534L49.4688 24.3182ZM71.1023 18.4176C76.0185 18.4176 80.5445 19.1299 84.7182 20.5109L88.4878 9.11835C83.0023 7.30332 77.1945 6.41761 71.1023 6.41761V18.4176ZM84.7306 20.515C88.9447 21.8992 92.7006 23.9124 96.0379 26.5519L103.482 17.1399C99.0068 13.6004 93.9914 10.9261 88.4754 9.11426L84.7306 20.515ZM96.0644 26.5727C99.3673 29.155 102.147 32.317 104.409 36.1067L114.713 29.9572C111.719 24.94 107.965 20.6447 103.455 17.119L96.0644 26.5727ZM104.42 36.1251C106.627 39.7938 108.205 44.0746 109.086 49.047L120.902 46.953C119.795 40.7038 117.751 35.0059 114.702 29.9388L104.42 36.1251Z" fill="#209886"/>
<ellipse cx="69" cy="68" rx="17" ry="21" fill="#8AE2D5"/>
</svg>
